PathFileType	4	(X/Y/Z)	D:\Share\Shared_Data\Ergonomics\Sit To Stand Pertubation\S2\Unperturbed.trc
DataRate	CameraRate	NumFrames	NumMarkers	Units	OrigDataRate	OrigDataStartFrame	OrigNumFrames	
100	100	16	18	m	100	3933	291
Frame#	Time	R_Toe			R_ASIS			R_Pelvis			V_Sacral			L_Pelvis			L_ASIS			Clavical			R_Acromium			L_Acromium			Sternum			Torso			R_Thigh_Med			R_Thigh_Lat			R_Thigh			R_Shank_Med			R_Shank_Lat			R_Shank			R_Heel			
		X1	Y1	Z1	X2	Y2	Z2	X3	Y3	Z3	X4	Y4	Z4	X5	Y5	Z5	X6	Y6	Z6	X7	Y7	Z7	X8	Y8	Z8	X9	Y9	Z9	X10	Y10	Z10	X11	Y11	Z11	X12	Y12	Z12	X13	Y13	Z13	X14	Y14	Z14	X15	Y15	Z15	X16	Y16	Z16	X17	Y17	Z17	X18	Y18	Z18	

3933	39.32	0.44059021	0.069639679	0.14733208	-0.001879168	0.63114532	0.14061099	-0.077870644	0.64704486	0.17537422	-0.22170531	0.60477881	0.020686129	-0.11706253	0.65194983	-0.1582424	-0.022614855	0.64929858	-0.13029596	0.20916209	0.92864233	-0.005399436	0.14360875	1.0032137	0.19602649	0.13723973	0.99654492	-0.19260298	0.1653257	0.77158386	0.00094734186	0.19841638	0.88584692	-0.11669878	0.37198157	0.50321155	0.12843633	0.34187891	0.51094263	0.2321301	0.18285674	0.62255518	0.17476735	0.30262686	0.10948106	0.11306255	0.28315958	0.10053582	0.20530472	0.33282788	0.35844098	0.24317599	0.20292923	0.060046703	0.15304297
3934	39.33	0.44044318	0.070025909	0.14753355	0.0008479073	0.6309201	0.14076401	-0.074930656	0.6477688	0.17548512	-0.21906059	0.60726373	0.020684769	-0.11344118	0.65332379	-0.15792305	-0.019089153	0.64934882	-0.13011003	0.21794664	0.92441736	-0.0055386934	0.15379694	1.000712	0.1957045	0.14753157	0.99304333	-0.19293867	0.17206303	0.7681698	0.0011528755	0.20664067	0.88167871	-0.11664037	0.37299725	0.503034	0.12896333	0.34279727	0.51074951	0.23262465	0.18392792	0.62265326	0.17526692	0.30257526	0.10962092	0.11322108	0.28289966	0.10038793	0.20539819	0.33335379	0.35821106	0.24349391	0.20280502	0.05983482	0.15303723
3935	39.34	0.44026349	0.070512085	0.14780077	0.0037528584	0.63081177	0.14092966	-0.07180867	0.64865131	0.17556761	-0.21618353	0.60995453	0.020663286	-0.10952985	0.65480975	-0.15763226	-0.015275443	0.64944281	-0.12991452	0.22677798	0.92027979	-0.0056553206	0.16402071	0.99828052	0.19538512	0.15787656	0.98954596	-0.19326804	0.17901495	0.76480927	0.0013895142	0.21498938	0.87760236	-0.11656155	0.37413895	0.50284015	0.12952538	0.34382349	0.5105332	0.23314494	0.18516518	0.62285266	0.17583936	0.30251663	0.10979161	0.11341491	0.28259882	0.10021532	0.20552763	0.3339292	0.3579617	0.24383324	0.20266055	0.059586662	0.15301991
3936	39.35	0.44005664	0.071089851	0.14813751	0.0068486581	0.63084216	0.14109766	-0.068487015	0.64971136	0.1756241	-0.2130704	0.61285992	0.020630018	-0.10534715	0.6564165	-0.1573727	-0.011207151	0.6496012	-0.12971719	0.23565071	0.91624347	-0.0057403865	0.17426065	0.9959364	0.19506665	0.16827464	0.98607751	-0.1935889	0.18617502	0.76151379	0.0016612611	0.22349251	0.87364374	-0.11645352	0.37541699	0.50261868	0.13012473	0.34496765	0.51028848	0.23369815	0.1865905	0.62317474	0.17648773	0.30245663	0.10998871	0.11364463	0.28226797	0.10001849	0.20569711	0.33456479	0.35768826	0.24419977	0.20250261	0.05931163	0.15299324
3937	39.36	0.43983362	0.071738686	0.14854149	0.010143077	0.63102441	0.14125885	-0.064953255	0.65095636	0.17566225	-0.20972166	0.61597827	0.020597258	-0.10092189	0.65814734	-0.15714503	-0.0069206238	0.64984088	-0.1295253	0.2445692	0.9123114	-0.0057865291	0.18449944	0.99369312	0.19474586	0.1787254	0.98265955	-0.1938985	0.19351749	0.75829279	0.0019692361	0.23216072	0.8698136	-0.11631022	0.37684351	0.50235944	0.13076067	0.34623935	0.51000983	0.23428908	0.18822229	0.62363129	0.17720921	0.30240411	0.11020376	0.11390804	0.28192453	0.099799911	0.20590596	0.3352756	0.3573847	0.24459712	0.20234166	0.059024303	0.15296086
3938	39.37	0.43960886	0.072427925	0.14900198	0.013637601	0.63135858	0.14140495	-0.061201984	0.65237842	0.17569186	-0.20614308	0.61929724	0.020580133	-0.096292084	0.66	-0.15694797	-0.0024555433	0.65017175	-0.12934547	0.25354091	0.90847705	-0.0057895646	0.19472072	0.99155646	0.19441856	0.18922354	0.97930878	-0.1941937	0.20099725	0.75515179	0.0023098497	0.24097774	0.86610895	-0.11612798	0.37843127	0.50205624	0.13142891	0.34764746	0.50969159	0.23491565	0.19007288	0.62421741	0.17799167	0.30237054	0.11042503	0.11420004	0.28159067	0.099563637	0.20614745	0.33608185	0.35704514	0.24502426	0.20219054	0.058740982	0.15292628
3939	39.38	0.43939908	0.07312059	0.14949829	0.017326593	0.63183044	0.14152905	-0.057235943	0.65395587	0.17572137	-0.2023468	0.62279437	0.020594355	-0.091501678	0.66196466	-0.1567766	0.0021463227	0.65059351	-0.12918303	0.2625636	0.90472821	-0.0057495265	0.20490642	0.98952606	0.1940806	0.19975482	0.97603839	-0.19447069	0.20855441	0.75209436	0.0026745706	0.249897	0.86251782	-0.11590632	0.38018964	0.50170578	0.13211815	0.34919977	0.50932938	0.23556555	0.19214648	0.62490552	0.17881274	0.30236957	0.1106393	0.11451284	0.28129163	0.099315186	0.20640977	0.3370065	0.35666492	0.24547351	0.20206183	0.058476612	0.15289154
3940	39.39	0.43922079	0.073779099	0.15000087	0.021196573	0.63241449	0.14162759	-0.053066475	0.65565637	0.1757569	-0.19835187	0.62643707	0.020653175	-0.086595596	0.66402069	-0.15662086	0.0068441558	0.65109332	-0.12904039	0.27161996	0.90105231	-0.0056703463	0.21503368	0.98759827	0.19372951	0.21029419	0.97286151	-0.19472452	0.21611818	0.74912561	0.0030514336	0.25884299	0.85902753	-0.11564696	0.38212286	0.50130612	0.13280666	0.35090353	0.50892133	0.23621516	0.19444055	0.62565112	0.17964044	0.30241351	0.11083376	0.11483591	0.28105258	0.099060463	0.20667938	0.33807111	0.35624219	0.24592963	0.20196503	0.058243027	0.15285738
3941	39.4	0.43908694	0.074371796	0.15047708	0.025226122	0.63308099	0.14170093	-0.048713936	0.65744379	0.17580247	-0.19418385	0.63018408	0.02076371	-0.081615685	0.66613916	-0.15646779	0.01160098	0.65165009	-0.12891698	0.28068222	0.89744397	-0.0055585074	0.22507201	0.9857702	0.19336545	0.22080545	0.96979523	-0.1949498	0.22361151	0.74625769	0.003428448	0.26772424	0.85563214	-0.11535107	0.38422849	0.5008551	0.13346149	0.3527662	0.50846918	0.23683072	0.19695003	0.62640442	0.1804334	0.3025098	0.11099788	0.11515643	0.28089438	0.098804131	0.20694543	0.33929144	0.35577866	0.24636986	0.2019046	0.058047375	0.15282404
3942	39.41	0.43900436	0.074877159	0.15089952	0.029387318	0.63380786	0.14175104	-0.044206886	0.65928571	0.17586057	-0.18987431	0.63398639	0.020924238	-0.076599808	0.66829041	-0.15630664	0.016384359	0.65224701	-0.12881113	0.28971606	0.89391187	-0.0054212785	0.23498155	0.98404266	0.19299158	0.23124164	0.96686322	-0.19514273	0.23095702	0.74351422	0.0037973409	0.27645325	0.85233929	-0.11501852	0.38649634	0.50034857	0.1340405	0.35479568	0.50797809	0.23737122	0.19967114	0.62712396	0.18114218	0.30265863	0.1111247	0.11546131	0.28082904	0.098549416	0.20720213	0.34067447	0.35528046	0.24676512	0.20187994	0.057890972	0.15279189
3943	39.42	0.43897321	0.075284973	0.15125191	0.03364854	0.63459009	0.14177879	-0.039579533	0.66116034	0.17593242	-0.18546065	0.63778992	0.021124817	-0.071583664	0.67045245	-0.15613258	0.021164663	0.65288403	-0.12872243	0.2986817	0.89048309	-0.0052645516	0.2447132	0.98242114	0.19261429	0.24154626	0.96409869	-0.19530252	0.23808154	0.74093182	0.0041548586	0.28496201	0.84917175	-0.11464967	0.38891064	0.49978073	0.13449661	0.35699979	0.50745642	0.23779242	0.20260333	0.62778613	0.18171469	0.30285364	0.11121185	0.11573943	0.28085742	0.098299767	0.20744714	0.34221649	0.35475784	0.2470824	0.20188672	0.057769947	0.1527617
3944	39.43	0.43898941	0.075594604	0.1515289	0.037977177	0.63544415	0.14178365	-0.034868561	0.66306012	0.1760193	-0.18098676	0.64153876	0.02135293	-0.066604065	0.67261603	-0.15594608	0.025911686	0.65358099	-0.12865207	0.30753287	0.88720367	-0.0050915174	0.25421112	0.9809176	0.19224338	0.25165651	0.96154333	-0.19543074	0.24492146	0.73855621	0.0045012722	0.29321198	0.84616473	-0.11424633	0.3914537	0.4991452	0.13478304	0.35938535	0.50691409	0.23805141	0.20574802	0.62838837	0.18210242	0.3030845	0.11126125	0.11598191	0.28096994	0.098060562	0.20767728	0.34390448	0.35422437	0.24728804	0.20191835	0.057677528	0.15273444
3945	39.44	0.43904688	0.075810898	0.15173105	0.042341534	0.63640381	0.14176512	-0.030110575	0.66499152	0.17612361	-0.17650308	0.64518164	0.021602154	-0.061701454	0.67478235	-0.15574893	0.030591278	0.6543736	-0.12860057	0.31621585	0.88413354	-0.0049034777	0.26341708	0.97954913	0.19189131	0.26150818	0.95924335	-0.195528	0.25142967	0.73643707	0.0048374453	0.30119086	0.84336377	-0.11380982	0.39410696	0.49843634	0.13485745	0.361957	0.50636011	0.23811052	0.2091049	0.62894275	0.18226573	0.30333957	0.11127705	0.11618073	0.28115094	0.097839645	0.20788612	0.34572043	0.35369461	0.24735191	0.20196806	0.057606705	0.15271085
3946	39.45	0.43913937	0.075939873	0.15186031	0.046712479	0.63751086	0.14172453	-0.025340017	0.66697076	0.17624832	-0.17206331	0.64867798	0.021878134	-0.056919655	0.67696063	-0.15554022	0.035164722	0.65530304	-0.12856654	0.32466934	0.88133777	-0.0047022214	0.27227594	0.97833765	0.1915712	0.27103934	0.95724609	-0.19559303	0.25758035	0.73462115	0.0051611962	0.30889389	0.84082288	-0.11334149	0.39685126	0.49765082	0.13468597	0.36471539	0.5058002	0.23794016	0.21267085	0.62946613	0.18218037	0.30360889	0.11126286	0.11632781	0.28138342	0.097645523	0.20806458	0.34764694	0.35318137	0.24725078	0.20202986	0.05755196	0.1526908
3947	39.46	0.43926056	0.075987839	0.15191805	0.051065079	0.63880493	0.14166478	-0.020586946	0.66901959	0.17639529	-0.16771707	0.65200519	0.022196947	-0.052301338	0.67916382	-0.15531538	0.039592922	0.65640552	-0.12854688	0.33282605	0.87887946	-0.0044921489	0.28074036	0.97730817	0.19129485	0.28019305	0.9555979	-0.19562509	0.26336826	0.73314709	0.0054641285	0.31630899	0.83860101	-0.11284749	0.39966742	0.49678864	0.13424716	0.36765552	0.50523465	0.237521	0.21644298	0.62997296	0.1818445	0.30388452	0.11122057	0.11641589	0.28165268	0.097484695	0.2082032	0.34966977	0.35269232	0.24697031	0.20209898	0.057509914	0.15267377
3948	39.47	0.43940503	0.07596286	0.15190601	0.055379585	0.64031323	0.14158885	-0.015875086	0.67115997	0.17656506	-0.16349985	0.65516766	0.022575432	-0.04788023	0.68140588	-0.15506955	0.043844841	0.6577027	-0.12853838	0.34061496	0.87681329	-0.0042809906	0.28877576	0.97648724	0.19107129	0.28891879	0.95434271	-0.19562599	0.26880356	0.73204333	0.0057310748	0.3234155	0.83675641	-0.11234212	0.40253711	0.49585388	0.13353506	0.37076498	0.50465988	0.23684633	0.22041727	0.63047491	0.18128127	0.30416006	0.11115092	0.11644038	0.28194681	0.097359947	0.20829512	0.35177777	0.35223007	0.24650691	0.20217128	0.057478855	0.152659
